<?xml version="1.0" standalone="no"?>
   <!DOCTYPE svg PUBLIC "-//W3C//DTD SVG 1.1//EN" 
   "http://www.w3.org/Graphics/SVG/1.1/DTD/svg11.dtd"><svg id="svg" version="1.1" width="864" height="732" xmlns="http://www.w3.org/2000/svg"><path d="M138.000 62.798 C 138.000 64.337,140.504 66.390,143.564 67.362 C 159.784 72.510,191.223 116.475,225.021 181.276 C 260.476 249.253,281.029 277.017,312.750 299.788 C 320.588 305.414,327.000 311.183,327.000 312.608 C 327.000 314.033,323.777 321.567,319.838 329.350 C 315.899 337.132,310.941 349.575,308.820 357.000 C 306.700 364.425,303.434 372.525,301.563 375.000 C 299.691 377.475,296.543 383.289,294.567 387.919 C 292.591 392.550,289.770 395.594,288.297 394.684 C 285.174 392.754,272.077 398.102,260.127 406.186 C 247.351 414.830,236.633 435.652,234.053 456.840 C 230.630 484.944,238.223 509.803,267.848 567.491 C 294.960 620.284,298.558 632.017,292.307 647.250 C 289.083 655.106,286.607 657.000,279.558 657.000 C 267.523 657.000,257.326 648.134,245.931 627.764 C 234.049 606.521,223.652 593.600,185.505 552.673 C 149.769 514.332,137.387 494.346,137.089 474.523 C 136.817 456.461,143.020 447.121,166.211 430.676 C 202.044 405.267,240.077 390.078,268.295 389.909 C 280.840 389.834,282.504 389.239,277.805 386.511 C 269.133 381.475,235.223 385.462,211.828 394.268 C 200.530 398.521,190.798 402.000,190.202 402.000 C 188.679 402.000,143.933 334.542,133.791 316.958 C 99.610 257.690,85.508 207.868,87.561 153.630 C 88.902 118.209,94.036 102.419,111.298 80.623 C 116.482 74.078,120.119 68.119,119.380 67.380 C 116.278 64.278,92.214 88.757,85.753 101.586 C 67.653 137.527,67.748 193.611,86.001 248.895 C 91.712 266.191,112.526 309.780,122.567 325.472 C 132.677 341.271,168.621 386.938,176.675 394.215 C 180.154 397.358,182.962 401.408,182.915 403.215 C 182.759 409.215,152.061 425.154,139.986 425.504 C 133.653 425.687,123.866 428.684,118.236 432.163 L 108.000 438.489 108.109 431.495 C 108.169 427.648,113.352 409.313,119.628 390.750 C 127.673 366.953,129.890 357.000,127.145 357.000 C 125.005 357.000,119.590 363.251,115.112 370.891 C 92.485 409.502,84.609 457.350,94.401 496.712 C 105.921 543.017,133.108 596.025,153.683 612.296 C 178.251 631.724,194.331 634.638,207.477 622.043 C 217.706 612.243,219.957 613.729,235.722 640.685 C 248.966 663.332,260.899 672.000,278.835 672.000 C 295.965 672.000,307.294 660.835,310.265 641.025 C 313.593 618.830,307.539 595.810,285.812 548.043 C 278.443 531.842,273.043 517.957,273.813 517.187 C 274.583 516.417,285.852 523.116,298.856 532.072 C 372.443 582.757,446.089 604.293,521.057 597.051 C 569.978 592.325,621.280 574.763,650.693 552.674 C 659.915 545.748,661.773 545.375,670.193 548.752 C 675.312 550.805,694.962 557.776,713.859 564.242 C 763.898 581.365,782.287 579.426,788.657 556.354 C 793.736 537.960,785.318 520.456,766.785 510.872 C 759.845 507.283,752.155 506.789,729.278 508.463 C 713.450 509.621,694.542 511.657,687.260 512.989 C 675.252 515.183,673.436 514.701,667.760 507.813 C 639.331 473.315,614.429 455.595,582.392 447.066 L 569.284 443.576 577.142 435.374 C 594.096 417.678,584.901 395.983,552.761 377.844 C 543.334 372.523,528.174 362.669,519.072 355.945 L 502.523 343.720 514.512 341.190 C 521.105 339.798,529.443 338.059,533.040 337.325 C 551.016 333.658,554.180 314.225,539.950 294.876 C 532.014 284.084,518.816 274.060,477.000 247.063 C 462.680 237.818,434.944 225.818,422.635 223.543 C 401.468 219.629,341.153 227.094,310.700 237.396 C 276.213 249.062,278.464 250.261,256.441 208.500 C 228.071 154.702,217.824 136.255,208.950 123.000 C 195.088 102.295,168.450 72.768,157.565 66.040 C 147.232 59.654,138.000 58.124,138.000 62.798 M129.000 83.949 C 129.000 133.076,164.222 226.586,206.317 289.215 C 226.112 318.667,270.753 369.106,274.124 365.828 C 275.070 364.909,268.935 354.784,260.491 343.328 C 198.385 259.071,154.926 170.085,137.802 92.113 C 133.178 71.056,129.000 67.181,129.000 83.949 M446.384 248.880 C 493.351 271.593,537.000 304.243,537.000 316.661 C 537.000 323.438,524.774 329.362,506.132 331.619 L 488.764 333.721 469.194 313.110 C 458.431 301.775,445.411 287.033,440.260 280.351 C 427.590 263.912,418.647 257.650,405.284 255.858 C 391.539 254.014,373.950 262.250,358.380 277.820 C 352.451 283.749,346.915 287.915,346.079 287.079 C 343.326 284.326,353.298 268.700,365.003 257.427 C 390.590 232.783,409.081 230.841,446.384 248.880 M360.000 244.500 C 360.000 246.975,358.707 249.000,357.126 249.000 C 351.795 249.000,338.972 274.990,338.135 287.491 C 336.696 308.981,332.859 308.615,309.370 284.750 C 297.616 272.809,288.000 262.126,288.000 261.011 C 288.000 259.060,348.580 240.579,356.250 240.190 C 358.313 240.086,360.000 242.025,360.000 244.500 M410.658 271.323 C 415.256 273.701,422.872 280.788,427.583 287.073 C 458.466 328.278,504.454 369.164,543.159 389.828 C 563.541 400.710,570.790 408.328,569.491 417.503 C 568.507 424.449,568.217 424.497,529.500 424.058 C 497.015 423.690,485.990 422.292,463.500 415.689 C 430.856 406.105,400.436 392.101,371.265 373.230 C 347.177 357.648,335.897 353.324,329.652 357.279 C 326.476 359.290,326.922 359.919,331.554 359.954 C 337.691 360.001,361.512 374.488,359.220 376.780 C 358.534 377.466,353.670 376.527,348.411 374.694 C 333.843 369.615,318.879 373.599,313.507 383.986 C 311.028 388.780,309.000 396.224,309.000 400.528 C 309.000 410.471,304.062 407.663,301.566 396.301 C 300.111 389.674,302.795 381.347,313.131 360.423 C 320.534 345.436,330.657 327.266,335.626 320.043 C 351.430 297.073,387.044 267.747,399.899 267.117 C 401.218 267.053,406.060 268.945,410.658 271.323 M356.598 397.052 C 400.149 428.543,473.031 449.953,522.105 445.672 L 545.301 443.649 583.053 461.785 C 613.701 476.509,624.828 483.718,642.188 500.093 L 663.570 520.265 709.035 520.775 C 734.041 521.055,755.175 521.445,756.000 521.642 C 756.825 521.839,757.500 530.897,757.500 541.771 L 757.500 561.542 748.500 559.892 C 743.550 558.984,722.665 554.180,702.090 549.216 L 664.679 540.190 645.657 549.177 C 597.670 571.850,550.360 582.610,498.000 582.758 C 427.046 582.960,394.658 572.371,278.234 510.908 C 265.533 504.203,262.761 496.155,262.938 466.500 C 263.109 437.742,267.857 421.361,279.666 408.791 C 288.509 399.378,293.591 400.288,298.557 412.173 C 303.477 423.950,316.250 437.444,334.104 449.728 C 400.872 495.665,490.262 526.384,580.500 534.402 C 618.355 537.765,666.000 535.972,666.000 531.184 C 666.000 529.917,650.578 527.959,631.730 526.832 C 559.893 522.537,494.178 508.249,428.366 482.616 C 388.257 466.994,339.959 441.665,332.712 432.452 C 324.935 422.566,319.796 404.207,322.164 394.772 C 325.027 383.362,338.940 384.284,356.598 397.052 M132.154 445.741 C 113.816 474.657,121.740 503.756,159.440 545.946 C 204.063 595.882,206.906 599.733,204.316 606.732 C 198.261 623.100,182.789 620.003,160.413 597.944 C 146.823 584.546,122.761 539.753,112.713 509.145 C 102.510 478.068,108.853 449.303,128.709 436.605 C 134.644 432.810,139.907 430.065,140.404 430.506 C 140.901 430.947,137.188 437.802,132.154 445.741 M249.077 447.020 L 246.614 457.500 246.307 448.250 C 246.138 443.163,246.900 438.100,248.000 437.000 C 251.377 433.623,251.644 436.102,249.077 447.020 M773.049 546.563 C 772.092 548.956,771.381 548.245,771.237 544.750 C 771.107 541.588,771.816 539.816,772.813 540.813 C 773.809 541.809,773.916 544.397,773.049 546.563 " stroke="none" fill="yellow" fill-rule="evenodd"/></svg>
